<svg width="938" height="938" viewBox="0 0 938 938" fill="none" xmlns="http://www.w3.org/2000/svg">
<rect width="938" height="938" rx="180" fill="#6B1035"/>
<g clip-path="url(#clip0_1095_1224)">
<path d="M784.48 274.64C795.39 238.04 793.29 189.24 754.82 170.2C739.87 162.32 721.8 159.56 704.79 160.12C609.39 164.77 538.19 243.04 491.41 319.95C491.27 320.16 491.14 320.38 491.01 320.6C482.83 333.58 474.99 347.16 467.18 360.1C461.37 370.09 454.84 366.47 448.79 358.95C433.8 341.42 418.02 323.71 401.26 306.87C352.29 257.66 294.97 215.97 224.4 208.61C175.82 202.17 107.3 221.85 107.78 280.71C108.06 312.83 125.61 344.35 143.17 370.28C158.58 393.16 176.78 413.94 197.14 432.25H1.42C0.48 444.36 0 456.61 0 468.96C0 486.91 1.01 504.61 2.97 522.04H329.32C329.32 522.04 329.32 522.04 329.33 522.07C274.94 579.54 238.29 654.56 236.34 734.65C235.94 753.77 238.34 777.62 255.11 789.28C275.22 802.83 301.08 786.72 309.95 766.07C322.33 736.82 319.33 703.29 329.7 673.13C342.7 627.22 367.07 599.03 401.27 582.48V933.07C423.37 936.27 445.97 937.93 468.96 937.93C476.35 937.93 483.71 937.75 491.02 937.41V562.04C601.99 553.75 638.75 613.92 673.94 716.58C680.58 732.15 691.68 747.32 708.65 752.01C744.91 760.85 756.19 718.73 748.4 690.68C735.25 625.57 699.5 565.78 649.78 522.03H934.96C936.92 504.61 937.93 486.9 937.93 468.95C937.93 456.6 937.45 444.35 936.51 432.24H683.39C731.27 390.89 767.37 335.74 784.48 274.62V274.64ZM391.58 433.69L391.43 434.25C382.55 454.2 345.53 437.89 329.92 432.3C329.9 432.3 329.88 432.3 329.86 432.29C280.57 411.67 224.52 371.07 210.86 317.85C206.72 291.39 234.91 294.26 251.65 301.85C286.91 316.23 318.32 340.61 345.81 367.19C361.16 383.85 392.53 408.11 391.59 432.31C391.57 432.77 391.62 433.24 391.59 433.7L391.58 433.69ZM557.78 421.12L556.92 421.32C535.7 426 535.63 406.46 541.49 392.33C555.77 350.96 583.58 303.63 621.1 273.92C644.43 252.39 730.95 218.78 703.66 282.84C677.22 337.86 615.7 400.29 557.78 421.12Z" fill="white"/>
</g>
<defs>
<clipPath id="clip0_1095_1224">
<rect width="937.94" height="937.94" fill="white"/>
</clipPath>
</defs>
</svg>
